<?xml version="1.0" encoding="UTF-8"?>
<!DOCTYPE svg PUBLIC "-//W3C//DTD SVG 1.1//EN" "http://www.w3.org/Graphics/SVG/1.1/DTD/svg11.dtd">
<!-- Creator: CorelDRAW 2021.5 -->
<svg xmlns="http://www.w3.org/2000/svg" xml:space="preserve" width="141.459mm" height="49.9102mm" version="1.1" style="shape-rendering:geometricPrecision; text-rendering:geometricPrecision; image-rendering:optimizeQuality; fill-rule:evenodd; clip-rule:evenodd"
viewBox="0 0 12890.98 4548.24"
 xmlns:xlink="http://www.w3.org/1999/xlink"
 xmlns:xodm="http://www.corel.com/coreldraw/odm/2003">
 <defs>
  <style type="text/css">
   <![CDATA[
    .str0 {stroke:#4C3B78;stroke-width:144.67;stroke-miterlimit:22.9256}
    .str1 {stroke:#8682AB;stroke-width:24.11;stroke-miterlimit:22.9256}
    .fil7 {fill:none}
    .fil2 {fill:#FFCC29}
    .fil0 {fill:#FEC12C}
    .fil6 {fill:#E63A38}
    .fil5 {fill:#8682AB;fill-rule:nonzero}
    .fil4 {fill:#41376B;fill-rule:nonzero}
    .fil3 {fill:url(#id0)}
    .fil1 {fill:url(#id1)}
   ]]>
  </style>
  <linearGradient id="id0" gradientUnits="userSpaceOnUse" x1="928.21" y1="3216.18" x2="3522.42" y2="1536.63">
   <stop offset="0" style="stop-opacity:1; stop-color:#ED3237"/>
   <stop offset="0.231373" style="stop-opacity:1; stop-color:#EA3248"/>
   <stop offset="0.45098" style="stop-opacity:1; stop-color:#E73159"/>
   <stop offset="1" style="stop-opacity:1; stop-color:#A23792"/>
  </linearGradient>
  <linearGradient id="id1" gradientUnits="userSpaceOnUse" x1="616.91" y1="2128.76" x2="2158.15" y2="1616.55">
   <stop offset="0" style="stop-opacity:1; stop-color:#E13839"/>
   <stop offset="1" style="stop-opacity:1; stop-color:#A23573"/>
  </linearGradient>
 </defs>
 <g id="Layer_x0020_1">
  <metadata id="CorelCorpID_0Corel-Layer"/>
  <g id="_2241819002768">
   <path class="fil0" d="M768.87 1819.61c-33.19,98.11 -56.28,193.56 -70.39,285.75 -20.7,135.26 -37.11,260.7 -30.79,381.15 47.82,910.96 1047.16,1228.6 1460.06,539.37 -29.57,-11.1 -460.47,336.06 -343.73,-730.17 41.13,-375.68 -1003.31,-228.7 -1015.15,-476.11z"/>
   <path class="fil0" d="M3670.4 499.8l0 115.39c0,1032.23 -448.57,1614.89 -1168.8,1671.39 -191.12,-1047.62 46.33,-1827.53 1019.96,-1797.17 47.82,1.49 97.43,4.94 148.84,10.4z"/>
   <path class="fil1" d="M665.05 489.45c1389.06,95.86 1145.54,1365.1 1183.75,2344.36 12.28,177.29 117.85,227.19 287.1,190.08 -459.42,591.98 -1481.09,-11.15 -1468.94,-677.87l-1.9 -1856.57z"/>
   <path class="fil2" d="M3670.4 573.79l-8.6 2221.88c-5.52,1428.36 -2173.01,2007.59 -2881.58,480.65 555.63,697.07 1722.07,426.34 1728.95,-471.58 -5.36,-1092.91 -135.95,-2091.71 1161.23,-2230.95z"/>
   <path class="fil3" d="M3670.4 573.79l-8.6 2221.88c-5.52,1428.36 -2173.01,2007.59 -2881.58,480.65 555.63,697.07 1722.07,426.34 1728.95,-471.58 -5.36,-1092.91 -135.95,-2091.71 1161.23,-2230.95z"/>
  </g>
  <g id="_2241819001088">
   <path class="fil4 str0" d="M5551.73 991.94l103 0 0 1300.07c-18.9,137.72 -76.38,255 -172.82,351.44 -115.35,115.35 -254.23,172.83 -417.03,172.83 -163.57,0 -302.83,-57.48 -418.18,-172.83 -115.35,-115.34 -172.82,-254.22 -172.82,-417.02l0 -1234.49 102.61 0 0 1234.49c0,133.87 47.84,248.83 143.13,344.11 95.28,95.29 210.25,142.74 345.27,142.74 134.64,0 249.6,-47.45 344.5,-142.74 94.9,-95.28 142.35,-210.24 142.35,-344.11l0 -1234.49zm543.55 946.31l0 862.21 -101.45 0 0 -1109.88 101.45 0 0 71.37c92.59,-92.2 200.61,-138.11 323.29,-138.11 131.16,0 237.64,41.28 319.81,123.45 82.17,81.79 124.22,185.56 126.53,310.55l0 742.62 -101.45 0 0 -733.36c0,-94.51 -34.34,-174.76 -102.62,-241.49 -67.9,-66.74 -148.91,-99.92 -242.26,-99.92 -93.36,0 -173.99,32.8 -241.88,98.37 -37.03,36.65 -64.05,74.84 -81.4,114.19zm1233.33 -247.67l0 1109.88 -101.85 0 0 -1109.88 101.85 0zm-50.92 -393.49c27.78,0 51.7,10.03 71.75,29.71 20.06,19.28 30.09,43.2 30.09,70.98 0,28.55 -10.03,52.85 -30.09,72.53 -20.06,19.67 -43.98,29.32 -71.75,29.32 -27.78,0 -51.7,-9.64 -71.75,-29.32 -20.06,-19.67 -30.09,-43.98 -30.09,-72.53 0,-27.78 10.03,-51.7 30.09,-70.98 20.06,-19.67 43.98,-29.71 71.75,-29.71zm514.24 -305.15l0 1808.52 -101.45 0 0 -1808.52 101.45 0zm550.51 1600.59c95.68,87.19 209.48,131.17 341.41,131.17 141.58,0 262.71,-50.16 363.02,-150.45 12.73,-12.73 24.69,-25.85 35.88,-39.35l107.63 38.19c-19.67,27 -42.06,53.24 -66.74,77.92 -121.52,121.52 -268.12,182.08 -439.79,182.08 -170.9,0 -317.11,-60.56 -438.63,-182.08 -121.14,-121.14 -181.7,-267.73 -181.7,-439.4 0,-171.28 60.56,-317.49 181.7,-438.63 121.52,-121.13 267.73,-182.08 438.63,-182.08 146.98,0 275.44,44.36 385.39,132.32 18.13,15.05 36.26,31.64 54.39,49.77 6.56,6.94 13.11,13.51 19.29,20.45l-77.16 76.77 -723.33 723.33zm648.88 -792.38c-88.35,-67.9 -190.58,-101.46 -307.47,-101.46 -140.81,0 -261.56,49.77 -361.47,149.68 -100.31,99.53 -150.45,220.28 -150.45,362.24 0,116.51 33.95,219.13 101.85,307.47l717.54 -717.93zm1668.1 1000.32l-101.85 0 0 -226.06c-19.29,26.23 -40.9,51.69 -64.43,75.61 -121.14,121.52 -267.73,182.08 -439.4,182.08 -171.28,0 -317.49,-60.56 -438.63,-182.08 -121.52,-121.14 -182.08,-267.34 -182.08,-438.25 0,-172.05 60.56,-318.65 182.08,-439.79 121.14,-121.13 267.34,-182.08 438.63,-182.08 171.68,0 318.27,60.56 439.4,182.08 23.53,23.92 45.14,49.38 64.43,75.62l0 -157.01 101.85 0 0 1109.88zm-101.85 -488.39l0 -200.99c-18.91,-99.53 -65.97,-187.1 -141.19,-262.32 -100.31,-100.31 -221.05,-150.07 -362.64,-150.07 -141.96,0 -262.71,49.77 -363.01,150.07 -100.31,100.3 -150.07,221.05 -150.07,363.01 0,141.59 49.77,262.33 150.07,362.24 100.3,99.53 221.05,149.69 363.01,149.69 141.59,0 262.33,-50.16 362.64,-150.45 75.23,-75.23 122.29,-162.42 141.19,-261.17zm1638.78 488.39l-101.85 0 0 -226.06c-19.29,26.23 -40.9,51.69 -64.43,75.61 -121.14,121.52 -267.73,182.08 -439.4,182.08 -171.28,0 -317.49,-60.56 -438.63,-182.08 -121.52,-121.14 -182.08,-267.34 -182.08,-438.25 0,-172.05 60.56,-318.65 182.08,-439.79 121.14,-121.13 267.34,-182.08 438.63,-182.08 171.68,0 318.27,60.56 439.4,182.08 23.53,23.92 45.14,49.38 64.43,75.62l0 -855.66 101.85 0 0 1808.52zm-101.85 -488.39l0 -200.99c-18.91,-99.53 -65.97,-187.1 -141.19,-262.32 -100.31,-100.31 -221.05,-150.07 -362.64,-150.07 -141.96,0 -262.71,49.77 -363.01,150.07 -100.31,100.3 -150.07,221.05 -150.07,363.01 0,141.59 49.77,262.33 150.07,362.24 100.3,99.53 221.05,149.69 363.01,149.69 141.59,0 262.33,-50.16 362.64,-150.45 75.23,-75.23 122.29,-162.42 141.19,-261.17z"/>
   <path class="fil5 str1" d="M4437.77 3620.41l31.38 -18.86c22.12,40.81 47.66,61.21 76.64,61.21 12.43,0 24.09,-2.92 34.98,-8.66 10.89,-5.75 19.2,-13.55 24.86,-23.24 5.75,-9.69 8.58,-19.98 8.58,-30.86 0,-12.35 -4.2,-24.43 -12.6,-36.35 -11.57,-16.38 -32.66,-36.18 -63.43,-59.23 -30.87,-23.32 -50.07,-40.12 -57.61,-50.49 -13.11,-17.41 -19.63,-36.27 -19.63,-56.5 0,-16.03 3.85,-30.69 11.57,-43.89 7.71,-13.2 18.6,-23.57 32.66,-31.21 14.06,-7.63 29.23,-11.4 45.69,-11.4 17.49,0 33.86,4.29 49.04,12.95 15.17,8.57 31.29,24.43 48.26,47.49l-30.17 22.89c-13.97,-18.43 -25.89,-30.6 -35.75,-36.43 -9.86,-5.91 -20.58,-8.83 -32.15,-8.83 -15,0 -27.26,4.55 -36.77,13.54 -9.52,9.09 -14.32,20.15 -14.32,33.44 0,7.97 1.71,15.77 5.06,23.32 3.34,7.55 9.51,15.69 18.43,24.6 4.8,4.63 20.83,16.98 47.92,36.86 32.06,23.67 54.09,44.66 66.01,63.02 11.91,18.43 17.92,36.94 17.92,55.54 0,26.76 -10.21,50.07 -30.52,69.79 -20.4,19.8 -45.18,29.66 -74.32,29.66 -22.46,0 -42.87,-6.01 -61.13,-18.01 -18.26,-12 -35.15,-32.14 -50.58,-60.35zm635.98 -309.48c55.9,0 102.7,18.69 140.34,55.98 37.64,37.29 56.5,83.25 56.5,137.77 0,54.09 -18.78,99.96 -56.33,137.59 -37.64,37.63 -83.41,56.49 -137.5,56.49 -54.7,0 -100.91,-18.77 -138.54,-56.24 -37.64,-37.46 -56.49,-82.82 -56.49,-136.05 0,-35.49 8.58,-68.32 25.72,-98.66 17.15,-30.26 40.55,-54.01 70.21,-71.16 29.57,-17.14 61.64,-25.72 96.09,-25.72zm1.63 36c-27.27,0 -53.16,7.12 -77.67,21.35 -24.43,14.23 -43.55,33.34 -57.36,57.44 -13.71,24.18 -20.57,51 -20.57,80.67 0,43.81 15.17,80.84 45.6,111.01 30.44,30.26 67.13,45.35 109.99,45.35 28.71,0 55.21,-6.94 79.56,-20.83 24.43,-13.89 43.47,-32.92 57.09,-57.01 13.63,-24.09 20.49,-50.83 20.49,-80.33 0,-29.32 -6.86,-55.81 -20.49,-79.46 -13.62,-23.67 -32.92,-42.61 -57.69,-56.84 -24.78,-14.23 -51.1,-21.35 -78.95,-21.35zm435.05 -26.75l185.16 0 0 36 -148.13 0 0 115.73 148.13 0 0 36 -148.13 0 0 181.57 -37.03 0 0 -369.32zm378.55 36l0 -36 202.15 0 0 36 -82.3 0 0 333.31 -37.55 0 0 -333.31 -82.3 0zm400.67 -36l37.37 0 76.05 265.93 107.16 -265.93 6.42 0 104.51 265.93 76.47 -265.93 37.46 0 -106.21 369.32 -6.01 0 -109.73 -279.3 -112.56 279.3 -5.31 0 -105.62 -369.32zm831.27 0l172.31 369.32 -39.7 0 -57.69 -121.39 -160.05 0 -57.36 121.39 -41.14 0 174.37 -369.32 9.26 0zm-4.63 77.5l-63.53 134.42 126.8 0 -63.27 -134.42zm401.61 -77.5l73.73 0c41.06,0 68.92,1.71 83.49,5.06 22.03,4.98 39.87,15.69 53.58,32.23 13.81,16.47 20.66,36.78 20.66,60.87 0,20.06 -4.71,37.72 -14.23,52.89 -9.43,15.25 -22.98,26.75 -40.63,34.55 -17.58,7.8 -41.93,11.75 -72.96,11.92l132.97 171.8 -45.35 0 -132.97 -171.8 -21.26 0 0 171.8 -37.03 0 0 -369.32zm37.03 36l0 125.51 63.78 0.51c24.78,0 43.04,-2.31 54.87,-7.03 11.83,-4.72 21.09,-12.17 27.78,-22.46 6.6,-10.29 9.94,-21.78 9.94,-34.55 0,-12.35 -3.34,-23.67 -10.12,-33.78 -6.68,-10.12 -15.51,-17.31 -26.49,-21.69 -10.88,-4.37 -29.06,-6.52 -54.43,-6.52l-65.33 0zm439.34 -36l211.41 0 0 36 -174.37 0 0 115.73 172.82 0 0 36 -172.82 0 0 145.57 172.82 0 0 36 -209.86 0 0 -369.32zm687.69 300.22l31.38 -18.86c22.12,40.81 47.66,61.21 76.64,61.21 12.43,0 24.09,-2.92 34.98,-8.66 10.89,-5.75 19.2,-13.55 24.86,-23.24 5.75,-9.69 8.58,-19.98 8.58,-30.86 0,-12.35 -4.2,-24.43 -12.6,-36.35 -11.57,-16.38 -32.66,-36.18 -63.43,-59.23 -30.87,-23.32 -50.07,-40.12 -57.61,-50.49 -13.11,-17.41 -19.63,-36.27 -19.63,-56.5 0,-16.03 3.85,-30.69 11.57,-43.89 7.71,-13.2 18.6,-23.57 32.66,-31.21 14.06,-7.63 29.23,-11.4 45.69,-11.4 17.49,0 33.86,4.29 49.04,12.95 15.17,8.57 31.29,24.43 48.26,47.49l-30.17 22.89c-13.97,-18.43 -25.89,-30.6 -35.75,-36.43 -9.86,-5.91 -20.58,-8.83 -32.15,-8.83 -15,0 -27.26,4.55 -36.77,13.54 -9.52,9.09 -14.32,20.15 -14.32,33.44 0,7.97 1.71,15.77 5.06,23.32 3.34,7.55 9.51,15.69 18.43,24.6 4.8,4.63 20.83,16.98 47.92,36.86 32.06,23.67 54.09,44.66 66.01,63.02 11.91,18.43 17.92,36.94 17.92,55.54 0,26.76 -10.21,50.07 -30.52,69.79 -20.4,19.8 -45.18,29.66 -74.32,29.66 -22.46,0 -42.87,-6.01 -61.13,-18.01 -18.26,-12 -35.15,-32.14 -50.58,-60.35zm635.98 -309.48c55.9,0 102.7,18.69 140.34,55.98 37.64,37.29 56.5,83.25 56.5,137.77 0,54.09 -18.78,99.96 -56.33,137.59 -37.64,37.63 -83.41,56.49 -137.5,56.49 -54.7,0 -100.91,-18.77 -138.54,-56.24 -37.64,-37.46 -56.49,-82.82 -56.49,-136.05 0,-35.49 8.58,-68.32 25.72,-98.66 17.15,-30.26 40.55,-54.01 70.21,-71.16 29.57,-17.14 61.64,-25.72 96.09,-25.72zm1.63 36c-27.27,0 -53.16,7.12 -77.67,21.35 -24.43,14.23 -43.55,33.34 -57.36,57.44 -13.71,24.18 -20.57,51 -20.57,80.67 0,43.81 15.17,80.84 45.6,111.01 30.44,30.26 67.13,45.35 109.99,45.35 28.71,0 55.21,-6.94 79.56,-20.83 24.43,-13.89 43.47,-32.92 57.09,-57.01 13.63,-24.09 20.49,-50.83 20.49,-80.33 0,-29.32 -6.86,-55.81 -20.49,-79.46 -13.62,-23.67 -32.92,-42.61 -57.69,-56.84 -24.78,-14.23 -51.1,-21.35 -78.95,-21.35zm435.05 -26.75l37.03 0 0 333.31 142.48 0 0 36 -179.51 0 0 -369.32zm404.78 0l37.03 0 0 223.06c0,26.41 0.51,42.95 1.54,49.46 1.8,14.57 6.09,26.75 12.78,36.52 6.69,9.77 16.98,18 30.87,24.6 13.89,6.6 27.86,9.94 42,9.94 12.17,0 23.92,-2.57 35.15,-7.8 11.15,-5.15 20.58,-12.35 28.12,-21.61 7.55,-9.18 13.03,-20.31 16.54,-33.34 2.49,-9.43 3.77,-28.63 3.77,-57.78l0 -223.06 37.03 0 0 222.89c0,33.01 -3.25,59.67 -9.69,79.98 -6.42,20.32 -19.37,38.06 -38.66,53.06 -19.37,15.09 -42.78,22.64 -70.3,22.64 -29.84,0 -55.39,-7.12 -76.65,-21.34 -21.34,-14.23 -35.58,-33.01 -42.78,-56.5 -4.54,-14.4 -6.77,-40.29 -6.77,-77.84l0 -222.89zm464.44 36l0 -36 202.15 0 0 36 -82.3 0 0 333.31 -37.55 0 0 -333.31 -82.3 0zm416.1 -36l37.03 0 0 369.32 -37.03 0 0 -369.32zm463.16 -9.26c55.9,0 102.7,18.69 140.34,55.98 37.64,37.29 56.5,83.25 56.5,137.77 0,54.09 -18.78,99.96 -56.33,137.59 -37.64,37.63 -83.41,56.49 -137.5,56.49 -54.7,0 -100.91,-18.77 -138.54,-56.24 -37.64,-37.46 -56.49,-82.82 -56.49,-136.05 0,-35.49 8.58,-68.32 25.72,-98.66 17.15,-30.26 40.55,-54.01 70.21,-71.16 29.57,-17.14 61.64,-25.72 96.09,-25.72zm1.63 36c-27.27,0 -53.16,7.12 -77.67,21.35 -24.43,14.23 -43.55,33.34 -57.36,57.44 -13.71,24.18 -20.57,51 -20.57,80.67 0,43.81 15.17,80.84 45.6,111.01 30.44,30.26 67.13,45.35 109.99,45.35 28.71,0 55.21,-6.94 79.56,-20.83 24.43,-13.89 43.47,-32.92 57.09,-57.01 13.63,-24.09 20.49,-50.83 20.49,-80.33 0,-29.32 -6.86,-55.81 -20.49,-79.46 -13.62,-23.67 -32.92,-42.61 -57.69,-56.84 -24.78,-14.23 -51.1,-21.35 -78.95,-21.35zm435.56 342.57l0 -369.32 7.97 0 245.61 282.47 0 -282.47 37.03 0 0 369.32 -8.4 0 -244.15 -279.98 0 279.98 -38.06 0z"/>
  </g>
  <path class="fil6" d="M7277.09 1215.66c100.41,0 181.82,81.4 181.82,181.82 0,100.41 -81.4,181.82 -181.82,181.82 -100.41,0 -181.82,-81.4 -181.82,-181.82 0,-100.41 81.4,-181.82 181.82,-181.82z"/>
  <polygon class="fil7" points="-0,0 12890.98,0 12890.98,4548.24 -0,4548.24 "/>
 </g>
</svg>
